<svg width="290" height="72" viewBox="0 0 290 72" fill="none" xmlns="http://www.w3.org/2000/svg" role="img" aria-labelledby="title desc">
  <title id="title">NSVAIR Software Technology</title>
  <desc id="desc">Blue enterprise technology logo for NSVAIR Software Technology.</desc>
  <rect x="4" y="4" width="64" height="64" rx="18" fill="#0B2A5B"/>
  <path d="M20 49V23H26.9L44.4 39.4V23H52V49H45.1L27.6 32.6V49H20Z" fill="white"/>
  <path d="M50 17L60 11V31L50 37V17Z" fill="#37A3FF"/>
  <path d="M12 59L21.8 51H39L29.2 59H12Z" fill="#8FD4FF"/>
  <path d="M84 25.2H90.1L104 41.1V25.2H111.1V52H105L91.1 36.1V52H84V25.2ZM122.7 52.4C118.6 52.4 115.2 51.5 112.4 49.8L114.5 44.8C117.2 46.3 119.9 47.1 122.8 47.1C125.5 47.1 126.9 46.4 126.9 44.9C126.9 43.6 125.9 42.9 122.9 42.2L120.7 41.7C116 40.6 113.3 38.1 113.3 34.1C113.3 28.9 117.4 24.8 124 24.8C127.6 24.8 130.8 25.5 133.5 26.9L131.5 32C129.2 30.8 126.8 30.2 124.2 30.2C121.8 30.2 120.5 30.9 120.5 32.2C120.5 33.4 121.5 34.1 124.1 34.7L126.4 35.2C131.6 36.4 134.1 39 134.1 43.1C134.1 48.6 129.8 52.4 122.7 52.4ZM144.8 52L134.8 25.2H142.2L148 43.1L153.9 25.2H161.2L151.1 52H144.8ZM160.4 52L171.3 25.2H178.3L189.2 52H181.8L180 47.2H169.6L167.8 52H160.4ZM171.6 41.8H178L174.8 33.1L171.6 41.8ZM192.3 52V25.2H199.6V52H192.3ZM205 52V25.2H218.2C224.4 25.2 228.2 28.8 228.2 34.2C228.2 37.7 226.5 40.4 223.4 41.9L229.4 52H221.4L216.4 43.2H212.3V52H205ZM212.3 37.6H217.3C219.5 37.6 220.8 36.3 220.8 34.3C220.8 32.2 219.5 31 217.3 31H212.3V37.6Z" fill="#0B2A5B"/>
  <path d="M238 28H274" stroke="#0B64D8" stroke-width="5" stroke-linecap="round"/>
  <path d="M238 39H265" stroke="#37A3FF" stroke-width="5" stroke-linecap="round"/>
  <path d="M238 50H282" stroke="#8FD4FF" stroke-width="5" stroke-linecap="round"/>
  <text x="84" y="66" fill="#456070" font-family="Inter, Arial, sans-serif" font-size="10" font-weight="700" letter-spacing="1.8">SOFTWARE TECHNOLOGY</text>
</svg>
